<?xml version="1.0" encoding="utf-8"?>
<!-- Generator: Adobe Illustrator 25.2.1, SVG Export Plug-In . SVG Version: 6.00 Build 0)  -->
<svg version="1.1" id="Layer_1" xmlns="http://www.w3.org/2000/svg" xmlns:xlink="http://www.w3.org/1999/xlink" x="0px" y="0px"
	 viewBox="0 0 3118.1 5669.3" style="enable-background:new 0 0 3118.1 5669.3;" xml:space="preserve">
<style type="text/css">
	.st0{fill:url(#SVGID_1_);}
</style>
<linearGradient id="SVGID_1_" gradientUnits="userSpaceOnUse" x1="0" y1="2806.3328" x2="3118.1104" y2="2806.3328" gradientTransform="matrix(1 0 0 -1 0 5670.8188)">
	<stop  offset="0" style="stop-color:#03ADBF"/>
	<stop  offset="1" style="stop-color:#002940"/>
</linearGradient>
<path class="st0" d="M1851.9,331.9v1305.9l-955.2-568.2l-3.7,6c1.8-12.5,2.7-25.1,2.7-37.8c0.3-137.2-110.6-248.6-247.8-248.9
	c-137.2-0.3-248.6,110.6-248.9,247.8c-0.3,137.2,110.6,248.6,247.8,248.9c54.9,0.1,108.3-17.9,151.8-51.3l-4.2,7.3l1057.6,628.7
	V2177l-1377.2-13.9c-54.9-125.3-201-182.4-326.4-127.5C23,2090.6-34,2236.7,20.9,2362.1c54.9,125.3,201,182.4,326.4,127.5
	c56.6-24.8,101.9-69.9,127-126.4l1377.7,14.5v913.1H474.5c-55.2-125.2-201.5-181.9-326.7-126.7c-125.2,55.2-181.9,201.5-126.7,326.7
	c55.2,125.2,201.5,181.9,326.7,126.7c56.5-24.9,101.7-70.1,126.7-126.7h1377.4v324.1L793.8,4426.2
	c-110.7-80.4-265.6-55.8-345.9,54.9c-80.4,110.7-55.8,265.6,54.9,345.9c110.7,80.4,265.6,55.8,345.9-54.9
	c30.7-42.3,47.2-93.2,47.3-145.4c0-9.1-0.5-18.2-1.5-27.3l957.7-553.9v1351.5h1266V331.9H1851.9z M647.7,1160.8
	c-67.9-0.2-122.8-55.3-122.7-123.3c0.2-67.9,55.3-122.8,123.3-122.7C716.1,915,771,970,771,1037.9c0,68-55.2,123-123.1,123
	C647.8,1160.8,647.8,1160.8,647.7,1160.8z M247.7,2385.2c-67.9-0.1-122.8-55.2-122.8-123c0.1-67.9,55.2-122.8,123-122.8
	s122.8,55.2,122.8,123c0,0,0,0,0,0.1c0,67.8-55,122.7-122.8,122.7C247.9,2385.2,247.8,2385.2,247.7,2385.2z M247.7,3513.7
	c-67.9-0.1-122.8-55.2-122.8-123c0.1-67.9,55.2-122.8,123-122.8s122.8,55.2,122.8,123c-0.1,67.8-55.2,122.7-123,122.6c0,0,0,0-0.1,0
	V3513.7z M647.7,4749.4c-67.9-0.2-122.7-55.4-122.6-123.3c0.2-67.9,55.4-122.7,123.3-122.6c67.9,0.2,122.7,55.3,122.6,123.2
	c-0.2,67.8-55.4,122.6-123.2,122.4c0,0,0,0,0,0V4749.4z M2051.9,792.3c251.7,39.6,442.7,225.8,442.7,448.5s-191,408.8-442.7,448.5
	V792.3z M2051.9,2386.1c251.7,39.5,442.7,225.8,442.7,448.5s-191,409-442.7,448.5V2386.1z M2051.9,3996.1
	c251.7,39.5,442.7,225.8,442.7,448.5s-191,409-442.7,448.5V3996.1z M2918.2,5196.7h-866.2v-102c362.5-43.2,642.7-318.5,642.7-650.2
	c0-331.7-280.2-607-642.7-650.3v-309.4c362.5-43.3,642.7-318.5,642.7-650.3s-280.2-607-642.7-650.2V1891
	c362.5-43.2,642.7-318.5,642.7-650.2s-280.2-607-642.7-650.3v-58.7h866.2L2918.2,5196.7z"/>
</svg>
